<?xml version="1.0" standalone="no"?><!DOCTYPE svg PUBLIC "-//W3C//DTD SVG 1.1//EN" "http://www.w3.org/Graphics/SVG/1.1/DTD/svg11.dtd"><svg t="1692148213272" class="icon" viewBox="0 0 1024 1024" version="1.1" xmlns="http://www.w3.org/2000/svg" p-id="5666" id="mx_n_1692148213273" xmlns:xlink="http://www.w3.org/1999/xlink" width="200" height="200"><path d="M957.12 465.664c1.856 3.84 2.88 8.064 2.88 12.544v395.648C960 937.024 922.848 992 868.576 992H155.424C101.152 992 64 937.024 64 873.856V478.208c0-4.48 1.024-8.736 2.88-12.544A191.552 191.552 0 0 1 0 320c0-19.424 17.6-98.72 52.864-237.888A64 64 0 0 1 115.328 32h793.344a64 64 0 0 1 62.464 50.112C1006.368 221.28 1024 300.576 1024 320c0 58.24-25.92 110.432-66.88 145.664zM896 501.088A191.68 191.68 0 0 1 832 512a191.808 191.808 0 0 1-160-85.824A191.808 191.808 0 0 1 512 512a191.808 191.808 0 0 1-160-85.824A191.808 191.808 0 0 1 192 512a191.68 191.68 0 0 1-64-10.912V875.648c0 30.784 16.064 52.352 27.424 52.352h713.152c11.36 0 27.424-21.568 27.424-52.352V501.088zM908.672 96H115.328C81.088 232.608 64 307.264 64 320a128 128 0 0 0 234.72 70.72 64 64 0 0 1 106.56 0A127.808 127.808 0 0 0 512 448a127.808 127.808 0 0 0 106.72-57.28 64 64 0 0 1 106.56 0A128 128 0 0 0 960 320c0-12.736-17.12-87.392-51.328-224zM288 640a32 32 0 0 1 32 32v96a32 32 0 0 1-64 0v-96a32 32 0 0 1 32-32z" fill="#ffffff" p-id="5667"></path></svg>