<?xml version="1.0" standalone="no"?><!DOCTYPE svg PUBLIC "-//W3C//DTD SVG 1.1//EN" "http://www.w3.org/Graphics/SVG/1.1/DTD/svg11.dtd"><svg t="1692153232731" class="icon" viewBox="0 0 1024 1024" version="1.1" xmlns="http://www.w3.org/2000/svg" p-id="16360" xmlns:xlink="http://www.w3.org/1999/xlink" width="200" height="200"><path d="M768.1 744.7H255.9c-115.5 0-209.4-93.9-209.4-209.4V302.5c0-115.5 93.9-209.4 209.4-209.4H768c115.5 0 209.4 93.9 209.4 209.4v232.9c0.1 115.4-93.9 209.3-209.3 209.3zM255.9 139.6C166.1 139.6 93 212.7 93 302.5v232.9c0 89.8 73.1 162.9 162.9 162.9H768c89.8 0 162.9-73.1 162.9-162.9V302.5c0-89.8-73.1-162.9-162.9-162.9H255.9z" p-id="16361"></path><path d="M542.1 462h70.1v-73.1h-70.1V462z m17.5-182.7h-70.1v73.1h70.1v-73.1zM437 462h70.1v-73.1H437V462z m17.5-182.7h-70.1v73.1h70.1v-73.1z m70.1 680.2l140.2-146.2H384.4l140.2 146.2z m140.2-680.2h-70.1v73.1h70.1v-73.1zM366.9 571.6h315.5v-73.1H366.9v73.1z m-17.5-292.3h-70.1v73.1h70.1v-73.1zM647.2 462h70.1v-73.1h-70.1V462z m52.6-109.6h70.1v-73.1h-70.1v73.1zM402 388.9h-70.1V462H402v-73.1z" p-id="16362"></path></svg>